M48
;Layer_Color=9474304
;FILE_FORMAT=4:4
METRIC,LZ
;TYPE=PLATED
T1F00S00C0.7620
T2F00S00C0.8890
%
T01
X0135763Y0047244
X0145923
Y0050927
Y0053467
X0117602Y0057277
Y0059817
Y0062357
Y0064897
Y0067437
Y0069977
Y0072517
Y0075057
Y0077597
X0102362
Y0075057
Y0072517
Y0069977
Y0067437
Y0064897
Y0062357
Y0059817
Y0057277
X0096901Y0056007
X0092583Y0056769
Y0054229
Y0060325
Y0062865
X0096901Y0061087
X0086741Y0062103
Y0059563
Y0057023
Y0068834
Y0071374
Y0073914
Y0076454
Y0078994
Y0081534
Y0084074
Y0086614
Y0089154
X0093091Y0089535
X0102362Y0090297
Y0087757
Y0085217
Y0082677
Y0080137
Y0092837
Y0095377
Y0097917
Y0100457
Y0102997
Y0105537
X0093091Y0105791
Y0103251
Y0099695
X0117602Y0100457
Y0102997
Y0105537
Y0097917
Y0095377
Y0092837
Y0090297
Y0087757
Y0085217
Y0082677
Y0080137
X0122428Y0085217
Y0087757
Y0090297
Y0092837
Y0095377
Y0097917
Y0100457
Y0102997
Y0105537
T02
X0145796Y0058293
X0148336
Y0060833
Y0063373
Y0065913
Y0068453
Y0070993
Y0073533
Y0076073
Y0078613
X0145796
Y0076073
Y0073533
Y0070993
Y0068453
Y0065913
Y0063373
Y0060833
X011176Y0053975
X0108585
Y0042545
X011176Y0042418
X0092583Y006604
Y0080772
X0125984Y0085852
X0128143Y0084074
X0130429Y008636
X0132715Y0083947
X0134874Y0086106
X0137287Y0084074
X0139827Y0085979
X0142367Y0083947
X0145796Y0083693
X0148336
Y0081153
X0145796
Y0086233
X0148336
Y0088773
Y0091313
Y0093853
Y0096393
Y0098933
Y0101473
Y0104013
Y0106553
Y0109093
X0145796Y0106553
Y0104013
Y0101473
Y0098933
Y0096393
Y0093853
Y0091313
Y0088773
X0142367Y0105283
X0137287Y010541
X0132715Y0105537
X0130429Y0107823
X0125984Y0108077
X0128143Y010541
X0134874Y0108077
X0139827
X0142875Y0120142
X0145415
X0148336
M30
