%FSLAX44Y44*%
%MOMM*%
G71*
G01*
G75*
G04 Layer_Physical_Order=2*
G04 Layer_Color=16711680*
%ADD10C,0.5080*%
%ADD11C,2.0320*%
%ADD12R,2.0320X2.0320*%
%ADD13R,2.0320X2.0320*%
G36*
X1067163Y1181693D02*
X1068528Y1181445D01*
X1069829Y1181073D01*
X1070883Y1180639D01*
X1071814Y1180205D01*
X1072186Y1180019D01*
X1072496Y1179833D01*
X1072744Y1179709D01*
X1072930Y1179585D01*
X1072992Y1179461D01*
X1073054D01*
X1073612Y1179027D01*
X1074108Y1178531D01*
X1074542Y1178035D01*
X1074914Y1177539D01*
X1075472Y1176485D01*
X1075844Y1175555D01*
X1076092Y1174687D01*
X1076216Y1174005D01*
X1076278Y1173757D01*
Y1173571D01*
Y1173447D01*
Y1173385D01*
X1076216Y1172703D01*
X1076154Y1172145D01*
X1076030Y1171649D01*
X1075844Y1171277D01*
X1075658Y1171029D01*
X1075534Y1170781D01*
X1075472Y1170719D01*
X1075410Y1170657D01*
X1075100Y1170409D01*
X1074728Y1170223D01*
X1074170Y1170037D01*
X1073922Y1169975D01*
X1073736Y1169913D01*
X1073550D01*
X1073116Y1169975D01*
X1072744Y1170037D01*
X1072434Y1170161D01*
X1072186Y1170285D01*
X1071938Y1170533D01*
X1071814Y1170657D01*
X1071504Y1171277D01*
X1071379Y1171959D01*
X1071318Y1172207D01*
Y1172455D01*
Y1172579D01*
Y1172641D01*
X1071379Y1173137D01*
X1071565Y1173571D01*
X1071752Y1173819D01*
X1071814Y1173881D01*
X1072000Y1174129D01*
X1072124Y1174501D01*
X1072248Y1175307D01*
X1072310Y1175679D01*
Y1176051D01*
Y1176299D01*
Y1176361D01*
X1072248Y1177043D01*
X1072000Y1177663D01*
X1071690Y1178159D01*
X1071318Y1178531D01*
X1070946Y1178841D01*
X1070636Y1179027D01*
X1070387Y1179151D01*
X1070325Y1179213D01*
X1069582Y1179523D01*
X1068900Y1179709D01*
X1068279Y1179895D01*
X1067721Y1179957D01*
X1067288Y1180019D01*
X1066915Y1180081D01*
X1066605D01*
X1065241Y1179957D01*
X1064001Y1179647D01*
X1063009Y1179275D01*
X1062203Y1178779D01*
X1061583Y1178283D01*
X1061149Y1177911D01*
X1060839Y1177601D01*
X1060777Y1177477D01*
X1060157Y1176485D01*
X1059723Y1175431D01*
X1059351Y1174439D01*
X1059165Y1173447D01*
X1059041Y1172641D01*
X1058917Y1171959D01*
Y1171711D01*
Y1171587D01*
Y1171463D01*
Y1171401D01*
X1059041Y1169913D01*
X1059289Y1168611D01*
X1059661Y1167495D01*
X1060095Y1166565D01*
X1060529Y1165821D01*
X1060901Y1165263D01*
X1061149Y1164953D01*
X1061273Y1164829D01*
X1062265Y1164023D01*
X1063381Y1163465D01*
X1064621Y1163031D01*
X1065799Y1162783D01*
X1066915Y1162597D01*
X1067349Y1162535D01*
X1067784D01*
X1068093Y1162473D01*
X1068589D01*
Y1160736D01*
X1067411D01*
X1066357Y1160612D01*
X1065365Y1160489D01*
X1064497Y1160303D01*
X1063691Y1160117D01*
X1062947Y1159868D01*
X1062327Y1159621D01*
X1061769Y1159372D01*
X1061273Y1159125D01*
X1060839Y1158876D01*
X1060529Y1158628D01*
X1060281Y1158443D01*
X1060033Y1158257D01*
X1059909Y1158132D01*
X1059785Y1158071D01*
Y1158008D01*
X1058979Y1156892D01*
X1058421Y1155714D01*
X1057987Y1154536D01*
X1057739Y1153420D01*
X1057553Y1152366D01*
X1057491Y1151932D01*
Y1151560D01*
X1057429Y1151250D01*
Y1151002D01*
Y1150878D01*
Y1150816D01*
Y1149824D01*
X1057553Y1148894D01*
X1057615Y1148026D01*
X1057801Y1147282D01*
X1057925Y1146538D01*
X1058111Y1145856D01*
X1058359Y1145298D01*
X1058545Y1144740D01*
X1058731Y1144244D01*
X1058979Y1143872D01*
X1059165Y1143500D01*
X1059289Y1143252D01*
X1059475Y1143004D01*
X1059537Y1142880D01*
X1059661Y1142756D01*
X1060591Y1141888D01*
X1061645Y1141268D01*
X1062761Y1140772D01*
X1063815Y1140462D01*
X1064807Y1140276D01*
X1065241Y1140214D01*
X1065613D01*
X1065923Y1140152D01*
X1066357D01*
X1067163Y1140214D01*
X1067907Y1140338D01*
X1068652Y1140462D01*
X1069210Y1140648D01*
X1069768Y1140834D01*
X1070139Y1141020D01*
X1070387Y1141082D01*
X1070450Y1141144D01*
X1071069Y1141516D01*
X1071504Y1141950D01*
X1071876Y1142384D01*
X1072062Y1142756D01*
X1072186Y1143128D01*
X1072248Y1143376D01*
X1072310Y1143562D01*
Y1143624D01*
X1072248Y1144182D01*
X1072062Y1144740D01*
X1071876Y1145112D01*
X1071814Y1145174D01*
Y1145236D01*
X1071504Y1145918D01*
X1071379Y1146600D01*
X1071318Y1146910D01*
Y1147158D01*
Y1147282D01*
Y1147344D01*
X1071441Y1147964D01*
X1071628Y1148584D01*
X1071752Y1148832D01*
X1071814Y1149018D01*
X1071938Y1149142D01*
Y1149204D01*
X1072186Y1149576D01*
X1072496Y1149824D01*
X1072868Y1150072D01*
X1073240Y1150196D01*
X1073550Y1150258D01*
X1073798Y1150320D01*
X1074046D01*
X1074418Y1150258D01*
X1074790Y1150134D01*
X1075410Y1149762D01*
X1075658Y1149576D01*
X1075844Y1149390D01*
X1075968Y1149266D01*
X1076030Y1149204D01*
X1076340Y1148770D01*
X1076588Y1148336D01*
X1076774Y1147902D01*
X1076898Y1147468D01*
X1076960Y1147158D01*
X1077022Y1146848D01*
Y1146662D01*
Y1146600D01*
X1076960Y1145980D01*
X1076898Y1145422D01*
X1076526Y1144368D01*
X1076030Y1143376D01*
X1075410Y1142570D01*
X1074790Y1141826D01*
X1074294Y1141330D01*
X1073922Y1141020D01*
X1073860Y1140896D01*
X1073798D01*
X1072558Y1140090D01*
X1071255Y1139470D01*
X1069954Y1139036D01*
X1068714Y1138726D01*
X1067660Y1138540D01*
X1067225Y1138478D01*
X1066853D01*
X1066543Y1138416D01*
X1066109D01*
X1064993Y1138478D01*
X1063939Y1138602D01*
X1062885Y1138726D01*
X1061955Y1138974D01*
X1061087Y1139222D01*
X1060343Y1139532D01*
X1059599Y1139904D01*
X1058917Y1140214D01*
X1058359Y1140524D01*
X1057863Y1140896D01*
X1057429Y1141206D01*
X1057057Y1141454D01*
X1056809Y1141702D01*
X1056623Y1141888D01*
X1056499Y1141950D01*
X1056437Y1142012D01*
X1055817Y1142694D01*
X1055259Y1143376D01*
X1054825Y1144120D01*
X1054453Y1144802D01*
X1053833Y1146228D01*
X1053399Y1147530D01*
X1053151Y1148646D01*
X1053089Y1149142D01*
X1053027Y1149514D01*
X1052965Y1149886D01*
Y1150134D01*
Y1150258D01*
Y1150320D01*
X1053027Y1151498D01*
X1053275Y1152676D01*
X1053585Y1153792D01*
X1053957Y1154784D01*
X1054329Y1155590D01*
X1054639Y1156210D01*
X1054763Y1156458D01*
X1054887Y1156644D01*
X1054949Y1156706D01*
Y1156768D01*
X1055383Y1157388D01*
X1055817Y1157946D01*
X1056933Y1158939D01*
X1058173Y1159807D01*
X1059413Y1160612D01*
X1060529Y1161171D01*
X1061087Y1161419D01*
X1061521Y1161605D01*
X1061893Y1161790D01*
X1062141Y1161915D01*
X1062327Y1161976D01*
X1062389D01*
X1061025Y1162473D01*
X1059785Y1163093D01*
X1058793Y1163713D01*
X1057987Y1164395D01*
X1057367Y1164953D01*
X1056933Y1165387D01*
X1056623Y1165697D01*
X1056561Y1165821D01*
X1055941Y1166813D01*
X1055507Y1167929D01*
X1055135Y1168983D01*
X1054949Y1169975D01*
X1054825Y1170843D01*
X1054701Y1171525D01*
Y1171773D01*
Y1171959D01*
Y1172083D01*
Y1172145D01*
X1054763Y1172765D01*
X1054825Y1173447D01*
X1055135Y1174625D01*
X1055631Y1175741D01*
X1056189Y1176733D01*
X1056747Y1177539D01*
X1057181Y1178159D01*
X1057429Y1178407D01*
X1057553Y1178593D01*
X1057615Y1178655D01*
X1057677Y1178717D01*
X1058235Y1179275D01*
X1058855Y1179771D01*
X1059537Y1180143D01*
X1060157Y1180515D01*
X1061521Y1181073D01*
X1062761Y1181445D01*
X1063877Y1181631D01*
X1064373Y1181755D01*
X1064807D01*
X1065117Y1181817D01*
X1065613D01*
X1067163Y1181693D01*
D02*
G37*
G36*
X893683Y1170285D02*
X894365Y1168983D01*
X895048Y1167743D01*
X895606Y1166689D01*
X896164Y1165759D01*
X896412Y1165387D01*
X896598Y1165077D01*
X896722Y1164829D01*
X896846Y1164643D01*
X896970Y1164519D01*
Y1164457D01*
X917802D01*
X915570Y1162225D01*
X914516Y1162473D01*
X913462Y1162659D01*
X912470Y1162783D01*
X911540Y1162907D01*
X910796D01*
X910176Y1162969D01*
X897714D01*
X899388Y1161108D01*
X901124Y1159435D01*
X902736Y1157946D01*
X904224Y1156768D01*
X904906Y1156210D01*
X905526Y1155776D01*
X906022Y1155342D01*
X906518Y1155032D01*
X906890Y1154784D01*
X907138Y1154598D01*
X907324Y1154474D01*
X907386Y1154412D01*
X909432Y1153172D01*
X911478Y1152118D01*
X913524Y1151126D01*
X915384Y1150258D01*
X916252Y1149886D01*
X917058Y1149576D01*
X917740Y1149266D01*
X918360Y1149018D01*
X918856Y1148832D01*
X919228Y1148708D01*
X919476Y1148584D01*
X919538D01*
X919290Y1147840D01*
X917616Y1148274D01*
X915942Y1148708D01*
X914330Y1149142D01*
X912904Y1149576D01*
X912284Y1149762D01*
X911664Y1149948D01*
X911168Y1150134D01*
X910734Y1150258D01*
X910362Y1150382D01*
X910114Y1150506D01*
X909928Y1150568D01*
X909866D01*
Y1149328D01*
Y1147964D01*
Y1146662D01*
Y1145422D01*
Y1144306D01*
Y1143810D01*
Y1143438D01*
Y1143066D01*
Y1142818D01*
Y1142694D01*
Y1142632D01*
Y1140896D01*
X909928Y1139222D01*
Y1137734D01*
X909990Y1136432D01*
Y1135812D01*
X910052Y1135316D01*
Y1134820D01*
Y1134448D01*
X910114Y1134138D01*
Y1133890D01*
Y1133766D01*
Y1133704D01*
X906642Y1134944D01*
Y1138168D01*
X896970D01*
Y1134448D01*
X893497Y1135688D01*
X893559Y1136370D01*
Y1137176D01*
X893622Y1138168D01*
Y1139160D01*
X893683Y1140276D01*
Y1141392D01*
Y1143748D01*
X893745Y1144802D01*
Y1145856D01*
Y1146786D01*
Y1147654D01*
Y1148336D01*
Y1148894D01*
Y1149204D01*
Y1149328D01*
X892010Y1150816D01*
X895730Y1153792D01*
X897466Y1151560D01*
X907882D01*
X906456Y1152304D01*
X905092Y1153110D01*
X902426Y1154908D01*
X901186Y1155838D01*
X900008Y1156830D01*
X898954Y1157760D01*
X897900Y1158690D01*
X897032Y1159558D01*
X896164Y1160365D01*
X895482Y1161047D01*
X894862Y1161729D01*
X894365Y1162225D01*
X894055Y1162659D01*
X893808Y1162907D01*
X893745Y1162969D01*
X886305D01*
X885437Y1161852D01*
X884569Y1160736D01*
X882523Y1158628D01*
X881531Y1157698D01*
X880477Y1156768D01*
X879423Y1155962D01*
X878369Y1155218D01*
X877439Y1154474D01*
X876571Y1153854D01*
X875765Y1153358D01*
X875021Y1152862D01*
X874463Y1152552D01*
X874029Y1152242D01*
X873781Y1152118D01*
X873657Y1152056D01*
X874153Y1151560D01*
X884569D01*
X888041Y1153296D01*
X887979Y1151498D01*
X887917Y1149762D01*
X887855Y1148150D01*
X887793Y1146662D01*
Y1145980D01*
Y1145360D01*
Y1144802D01*
Y1144368D01*
Y1143996D01*
Y1143748D01*
Y1143562D01*
Y1143500D01*
Y1141578D01*
X887855Y1139780D01*
Y1137982D01*
X887917Y1136432D01*
Y1135750D01*
X887979Y1135130D01*
Y1134572D01*
Y1134076D01*
X888041Y1133704D01*
Y1133456D01*
Y1133270D01*
Y1133208D01*
X884569Y1134448D01*
Y1138168D01*
X873409D01*
Y1134200D01*
X869689Y1135688D01*
X869751Y1136432D01*
Y1137362D01*
X869813Y1138354D01*
Y1139470D01*
X869875Y1141826D01*
Y1144182D01*
X869937Y1145298D01*
Y1146352D01*
Y1147282D01*
Y1148150D01*
Y1148832D01*
Y1149390D01*
Y1149700D01*
Y1149824D01*
X869689Y1150072D01*
X865969Y1148832D01*
X865783Y1149390D01*
X865535Y1149824D01*
X864915Y1150630D01*
X864171Y1151250D01*
X863303Y1151684D01*
X862559Y1151994D01*
X861877Y1152180D01*
X861629Y1152242D01*
X861443Y1152304D01*
X861257D01*
Y1153296D01*
X862745Y1153358D01*
X864171Y1153482D01*
X865535Y1153668D01*
X866837Y1153854D01*
X868077Y1154102D01*
X869193Y1154350D01*
X870247Y1154598D01*
X871177Y1154908D01*
X872045Y1155156D01*
X872851Y1155404D01*
X873471Y1155652D01*
X874029Y1155838D01*
X874463Y1156024D01*
X874773Y1156148D01*
X874959Y1156272D01*
X875021D01*
X877067Y1157326D01*
X878927Y1158443D01*
X880601Y1159621D01*
X881345Y1160117D01*
X882027Y1160675D01*
X882647Y1161108D01*
X883205Y1161543D01*
X883639Y1161976D01*
X884073Y1162287D01*
X884383Y1162597D01*
X884631Y1162783D01*
X884755Y1162907D01*
X884817Y1162969D01*
X862497D01*
X867457Y1167929D01*
X870929Y1164457D01*
X875889D01*
X875517Y1164953D01*
X875207Y1165449D01*
X875021Y1165821D01*
X874897Y1166255D01*
X874773Y1166937D01*
Y1167557D01*
X874959Y1167991D01*
X875145Y1168301D01*
X875331Y1168487D01*
X875393Y1168549D01*
X875765Y1168797D01*
X876137Y1169045D01*
X877129Y1169541D01*
X878183Y1169975D01*
X879237Y1170347D01*
X880229Y1170719D01*
X880663Y1170843D01*
X881097Y1170967D01*
X881407Y1171029D01*
X881655Y1171091D01*
X881779Y1171153D01*
X881841D01*
X882337Y1170409D01*
X881035Y1169417D01*
X879981Y1168425D01*
X879113Y1167433D01*
X878431Y1166503D01*
X877935Y1165697D01*
X877625Y1165015D01*
X877501Y1164767D01*
X877439Y1164643D01*
X877377Y1164519D01*
Y1164457D01*
X893001D01*
X892133Y1165511D01*
X891328Y1166317D01*
X890521Y1166999D01*
X889777Y1167557D01*
X889219Y1167929D01*
X888723Y1168239D01*
X888413Y1168363D01*
X888289Y1168425D01*
X893001Y1171649D01*
X893683Y1170285D01*
D02*
G37*
G36*
X958475Y1176361D02*
X982532D01*
X980547Y1174377D01*
X978315Y1174873D01*
X973603D01*
Y1171897D01*
Y1170471D01*
X973665Y1169169D01*
Y1167867D01*
Y1166689D01*
X973727Y1165573D01*
Y1164581D01*
Y1163651D01*
X973789Y1162783D01*
Y1162101D01*
Y1161480D01*
X973851Y1160984D01*
Y1160675D01*
Y1160426D01*
Y1160365D01*
X973975Y1158008D01*
X974223Y1155652D01*
X974533Y1153482D01*
X974719Y1152428D01*
X974843Y1151498D01*
X975029Y1150630D01*
X975215Y1149824D01*
X975339Y1149080D01*
X975463Y1148522D01*
X975587Y1148026D01*
X975649Y1147654D01*
X975711Y1147406D01*
Y1147344D01*
X976083Y1146104D01*
X976517Y1144802D01*
X977013Y1143562D01*
X977509Y1142322D01*
X978749Y1139904D01*
X979370Y1138788D01*
X979989Y1137796D01*
X980547Y1136804D01*
X981105Y1135936D01*
X981664Y1135130D01*
X982097Y1134448D01*
X982469Y1133952D01*
X982779Y1133518D01*
X982965Y1133270D01*
X983027Y1133208D01*
X982532Y1132464D01*
X981229Y1133704D01*
X980051Y1134882D01*
X978997Y1136122D01*
X978005Y1137300D01*
X977137Y1138478D01*
X976331Y1139594D01*
X975649Y1140648D01*
X975029Y1141640D01*
X974533Y1142570D01*
X974099Y1143376D01*
X973727Y1144120D01*
X973479Y1144802D01*
X973231Y1145298D01*
X973107Y1145670D01*
X972983Y1145918D01*
Y1145980D01*
X972549Y1147344D01*
X972177Y1148770D01*
X971557Y1151746D01*
X971061Y1154722D01*
X970813Y1156148D01*
X970689Y1157512D01*
X970503Y1158814D01*
X970441Y1159993D01*
X970317Y1161047D01*
X970255Y1161915D01*
X970193Y1162659D01*
X970131Y1163217D01*
Y1163589D01*
Y1163713D01*
X960459D01*
X960583Y1161357D01*
X960645Y1159125D01*
X960769Y1157016D01*
X960831Y1156086D01*
Y1155218D01*
X960893Y1154412D01*
X960955Y1153730D01*
Y1153110D01*
X961017Y1152552D01*
Y1152118D01*
X961079Y1151808D01*
Y1151622D01*
Y1151560D01*
X961141Y1150506D01*
X961203Y1149576D01*
X961327Y1148646D01*
X961389Y1147840D01*
X961451Y1147096D01*
X961575Y1146414D01*
X961637Y1145794D01*
X961699Y1145236D01*
X961761Y1144740D01*
X961823Y1144306D01*
X961885Y1143934D01*
X961947Y1143624D01*
X962009Y1143438D01*
X962071Y1143252D01*
Y1143190D01*
Y1143128D01*
X962319Y1142198D01*
X962629Y1141516D01*
X963001Y1141020D01*
X963373Y1140710D01*
X963683Y1140462D01*
X963931Y1140338D01*
X964117Y1140276D01*
X964923D01*
X965357Y1140338D01*
X965915Y1140400D01*
X967031Y1140586D01*
X968209Y1140772D01*
X969325Y1141020D01*
X969821Y1141082D01*
X970255Y1141206D01*
X970627Y1141268D01*
X970875Y1141330D01*
X971061Y1141392D01*
X971123D01*
X971371Y1140400D01*
X970441Y1140028D01*
X969635Y1139656D01*
X968891Y1139284D01*
X968271Y1138788D01*
X967713Y1138354D01*
X967279Y1137920D01*
X966907Y1137486D01*
X966535Y1137052D01*
X966101Y1136184D01*
X965853Y1135564D01*
X965729Y1135316D01*
X965667Y1135130D01*
Y1135006D01*
Y1134944D01*
X964737Y1135254D01*
X963869Y1135502D01*
X963187Y1135812D01*
X962629Y1136122D01*
X962257Y1136308D01*
X961947Y1136494D01*
X961761Y1136618D01*
X961699Y1136680D01*
X960893Y1137486D01*
X960211Y1138292D01*
X960025Y1138664D01*
X959839Y1138912D01*
X959777Y1139098D01*
X959715Y1139160D01*
X959467Y1139780D01*
X959219Y1140400D01*
X958971Y1141082D01*
X958785Y1141764D01*
X958661Y1142322D01*
X958537Y1142818D01*
X958475Y1143128D01*
Y1143252D01*
X958413Y1143562D01*
X958351Y1143872D01*
Y1144306D01*
X958289Y1144864D01*
X958165Y1146042D01*
X958041Y1147406D01*
X957979Y1148894D01*
X957855Y1150568D01*
X957669Y1153978D01*
X957607Y1155652D01*
X957483Y1157264D01*
X957421Y1158753D01*
X957359Y1160054D01*
Y1160612D01*
X957297Y1161171D01*
Y1161605D01*
X957235Y1161976D01*
Y1162287D01*
Y1162535D01*
Y1162659D01*
Y1162721D01*
X955251Y1164209D01*
X958475Y1167433D01*
X960707Y1165201D01*
X970131D01*
Y1174873D01*
X951531D01*
X955747Y1179089D01*
X958475Y1176361D01*
D02*
G37*
G36*
X1020476Y1181321D02*
X1019670Y1179895D01*
X1019050Y1178593D01*
X1018492Y1177415D01*
X1018058Y1176423D01*
X1017748Y1175617D01*
X1017562Y1174997D01*
X1017438Y1174625D01*
X1017376Y1174563D01*
Y1174501D01*
X1017190Y1174005D01*
X1017004Y1173633D01*
X1016818Y1173385D01*
X1016632Y1173199D01*
X1016446Y1173075D01*
X1016260Y1173013D01*
X1015888Y1173075D01*
X1015516Y1173261D01*
X1015268Y1173447D01*
X1015082Y1173695D01*
X1015020Y1173757D01*
X1014586Y1174501D01*
X1014338Y1175245D01*
X1014214Y1175865D01*
Y1176423D01*
X1014276Y1176857D01*
X1014400Y1177167D01*
X1014462Y1177415D01*
X1014524Y1177477D01*
X1014772Y1177787D01*
X1015020Y1178159D01*
X1015764Y1178841D01*
X1016694Y1179585D01*
X1017624Y1180267D01*
X1018492Y1180887D01*
X1019236Y1181383D01*
X1019546Y1181569D01*
X1019794Y1181693D01*
X1019918Y1181817D01*
X1019980D01*
X1020476Y1181321D01*
D02*
G37*
G36*
X1110998Y1179833D02*
X1109014D01*
X1108580Y1179771D01*
X1108270Y1179709D01*
X1108022Y1179585D01*
X1107712Y1179399D01*
X1107588Y1179337D01*
X1107278Y1178903D01*
X1107092Y1178407D01*
X1107030Y1178035D01*
Y1177911D01*
Y1177849D01*
Y1142384D01*
X1107092Y1141764D01*
X1107278Y1141268D01*
X1107464Y1141020D01*
X1107526Y1140896D01*
X1107712Y1140710D01*
X1108022Y1140586D01*
X1108580Y1140462D01*
X1108828Y1140400D01*
X1110998D01*
Y1138912D01*
X1099094D01*
Y1140400D01*
X1100830D01*
X1101512Y1140462D01*
X1102008Y1140648D01*
X1102318Y1140834D01*
X1102442Y1140896D01*
X1102814Y1141330D01*
X1103000Y1141826D01*
X1103062Y1142198D01*
Y1142322D01*
Y1142384D01*
Y1158753D01*
X1095374D01*
X1094444Y1158814D01*
X1093576Y1158876D01*
X1091964Y1159249D01*
X1090476Y1159682D01*
X1089236Y1160240D01*
X1088678Y1160551D01*
X1088244Y1160798D01*
X1087810Y1161047D01*
X1087438Y1161294D01*
X1087190Y1161480D01*
X1087004Y1161605D01*
X1086880Y1161666D01*
X1086818Y1161729D01*
X1086198Y1162349D01*
X1085640Y1162969D01*
X1085144Y1163651D01*
X1084710Y1164333D01*
X1084400Y1165077D01*
X1084090Y1165759D01*
X1083656Y1167185D01*
X1083408Y1168425D01*
X1083346Y1168983D01*
X1083284Y1169479D01*
X1083222Y1169851D01*
Y1170161D01*
Y1170347D01*
Y1170409D01*
X1083284Y1171277D01*
X1083346Y1172083D01*
X1083780Y1173633D01*
X1084276Y1174935D01*
X1084896Y1176113D01*
X1085578Y1176981D01*
X1085826Y1177353D01*
X1086074Y1177663D01*
X1086322Y1177911D01*
X1086508Y1178097D01*
X1086570Y1178159D01*
X1086632Y1178221D01*
X1087314Y1178779D01*
X1087996Y1179275D01*
X1088740Y1179647D01*
X1089546Y1180019D01*
X1091158Y1180577D01*
X1092708Y1180949D01*
X1093390Y1181073D01*
X1094072Y1181135D01*
X1094692Y1181259D01*
X1095188D01*
X1095622Y1181321D01*
X1110998D01*
Y1179833D01*
D02*
G37*
G36*
X1161344Y1153048D02*
X1190856D01*
X1194328Y1155032D01*
X1194266Y1151870D01*
X1194204Y1148646D01*
X1194142Y1145484D01*
Y1143996D01*
X1194080Y1142570D01*
Y1141206D01*
Y1139966D01*
Y1138912D01*
Y1137982D01*
Y1137238D01*
Y1136680D01*
Y1136308D01*
Y1136246D01*
Y1136184D01*
X1205241D01*
X1203008Y1133952D01*
X1201954Y1134200D01*
X1200900Y1134386D01*
X1199908Y1134510D01*
X1198978Y1134634D01*
X1198234D01*
X1197614Y1134696D01*
X1146959D01*
X1151175Y1139408D01*
X1154647Y1136184D01*
X1157624D01*
Y1150320D01*
X1155639Y1152056D01*
X1159360Y1155280D01*
X1161344Y1153048D01*
D02*
G37*
G36*
X1181184Y1167185D02*
X1180068Y1165697D01*
X1179200Y1164395D01*
X1178518Y1163279D01*
X1178022Y1162349D01*
X1177712Y1161605D01*
X1177464Y1161047D01*
X1177340Y1160736D01*
Y1160612D01*
X1177092Y1159868D01*
X1176844Y1159311D01*
X1176534Y1158939D01*
X1176286Y1158690D01*
X1176100Y1158567D01*
X1175914Y1158504D01*
X1175728D01*
X1175356Y1158690D01*
X1175046Y1158939D01*
X1174798Y1159311D01*
X1174550Y1159682D01*
X1174364Y1159993D01*
X1174240Y1160303D01*
X1174116Y1160551D01*
Y1160612D01*
X1173992Y1161294D01*
Y1161915D01*
X1174054Y1162535D01*
X1174240Y1163031D01*
X1174488Y1163465D01*
X1174674Y1163837D01*
X1174798Y1164023D01*
X1174860Y1164085D01*
X1175170Y1164395D01*
X1175480Y1164705D01*
X1176348Y1165325D01*
X1177278Y1165945D01*
X1178270Y1166503D01*
X1179200Y1166999D01*
X1179944Y1167371D01*
X1180254Y1167495D01*
X1180502Y1167619D01*
X1180626Y1167681D01*
X1180688D01*
X1181184Y1167185D01*
D02*
G37*
G36*
X1143487Y1179833D02*
X1142185D01*
X1141875Y1179771D01*
X1141565Y1179709D01*
X1141379Y1179585D01*
X1141069Y1179399D01*
X1141007Y1179337D01*
X1140697Y1178903D01*
X1140573Y1178407D01*
X1140511Y1178035D01*
Y1177911D01*
Y1177849D01*
Y1142384D01*
X1140573Y1141764D01*
X1140759Y1141268D01*
X1140945Y1141020D01*
X1141007Y1140896D01*
X1141193Y1140710D01*
X1141503Y1140586D01*
X1142061Y1140462D01*
X1142309Y1140400D01*
X1143487D01*
Y1138912D01*
X1136047D01*
Y1140400D01*
X1136791D01*
X1137473Y1140462D01*
X1137969Y1140648D01*
X1138279Y1140834D01*
X1138403Y1140896D01*
X1138775Y1141330D01*
X1138961Y1141826D01*
X1139023Y1142198D01*
Y1142322D01*
Y1142384D01*
Y1174129D01*
X1138527D01*
X1130839Y1138912D01*
X1129351D01*
X1120919Y1174873D01*
X1120423D01*
Y1142384D01*
X1120485Y1141764D01*
X1120671Y1141268D01*
X1120857Y1141020D01*
X1120919Y1140896D01*
X1121105Y1140710D01*
X1121415Y1140586D01*
X1121973Y1140462D01*
X1122221Y1140400D01*
X1123895D01*
Y1138912D01*
X1113231D01*
Y1140400D01*
X1114222D01*
X1114904Y1140462D01*
X1115400Y1140648D01*
X1115711Y1140834D01*
X1115835Y1140896D01*
X1116207Y1141330D01*
X1116393Y1141826D01*
X1116455Y1142198D01*
Y1142322D01*
Y1142384D01*
Y1177849D01*
X1116331Y1178531D01*
X1116145Y1178965D01*
X1115959Y1179275D01*
X1115835Y1179337D01*
X1115339Y1179647D01*
X1114781Y1179771D01*
X1114408Y1179833D01*
X1113231D01*
Y1181321D01*
X1121229D01*
X1129041Y1149080D01*
X1129537D01*
X1136543Y1181321D01*
X1143487D01*
Y1179833D01*
D02*
G37*
G36*
X1035295Y1188761D02*
Y1187831D01*
X1035233Y1186777D01*
Y1185661D01*
X1035171Y1183305D01*
X1035109Y1180949D01*
Y1179771D01*
Y1178717D01*
Y1177725D01*
Y1176857D01*
Y1176113D01*
Y1175617D01*
Y1175245D01*
Y1175183D01*
Y1175121D01*
X1045773D01*
X1043541Y1172889D01*
X1041309Y1173633D01*
X1035109D01*
Y1159497D01*
X1037527Y1157946D01*
X1038643Y1157264D01*
X1039697Y1156582D01*
X1040689Y1156024D01*
X1041557Y1155466D01*
X1042425Y1155032D01*
X1043169Y1154598D01*
X1043913Y1154226D01*
X1044471Y1153916D01*
X1045029Y1153668D01*
X1045463Y1153420D01*
X1045835Y1153234D01*
X1046083Y1153172D01*
X1046207Y1153048D01*
X1046269D01*
X1043293Y1149328D01*
X1042797Y1149886D01*
X1042239Y1150444D01*
X1040937Y1151622D01*
X1039635Y1152800D01*
X1038271Y1153978D01*
X1037031Y1154970D01*
X1036535Y1155404D01*
X1036039Y1155776D01*
X1035667Y1156086D01*
X1035357Y1156334D01*
X1035171Y1156458D01*
X1035109Y1156520D01*
Y1139160D01*
X1035171Y1138478D01*
X1035295Y1137982D01*
X1035481Y1137548D01*
X1035667Y1137238D01*
X1035853Y1137052D01*
X1036039Y1136866D01*
X1036163Y1136804D01*
X1036225D01*
X1036473Y1136742D01*
X1037341D01*
X1037899Y1136804D01*
X1039077Y1136990D01*
X1040441Y1137238D01*
X1041681Y1137486D01*
X1042239Y1137610D01*
X1042735Y1137672D01*
X1043169Y1137796D01*
X1043479Y1137858D01*
X1043727Y1137920D01*
X1043789D01*
Y1136928D01*
X1042611Y1136432D01*
X1041557Y1135936D01*
X1040689Y1135440D01*
X1039883Y1134944D01*
X1039201Y1134448D01*
X1038643Y1134014D01*
X1038209Y1133580D01*
X1037775Y1133208D01*
X1037527Y1132836D01*
X1037279Y1132464D01*
X1036969Y1131968D01*
X1036845Y1131596D01*
Y1131534D01*
Y1131472D01*
X1035977Y1131844D01*
X1035233Y1132278D01*
X1034551Y1132712D01*
X1033993Y1133208D01*
X1033497Y1133704D01*
X1033063Y1134138D01*
X1032753Y1134634D01*
X1032505Y1135068D01*
X1032133Y1135874D01*
X1031947Y1136556D01*
X1031885Y1136804D01*
Y1136990D01*
Y1137114D01*
Y1137176D01*
Y1158504D01*
X1024445Y1164953D01*
X1024940Y1165945D01*
X1031885Y1161233D01*
Y1173633D01*
X1022708D01*
X1026429Y1177601D01*
X1028909Y1175121D01*
X1031885D01*
Y1185289D01*
X1029901Y1187025D01*
X1035357Y1189505D01*
X1035295Y1188761D01*
D02*
G37*
G36*
X886491Y1185909D02*
X886429Y1184359D01*
X886367Y1182871D01*
X886305Y1181569D01*
Y1180949D01*
Y1180391D01*
Y1179895D01*
Y1179523D01*
Y1179151D01*
Y1178903D01*
Y1178779D01*
Y1178717D01*
Y1177043D01*
X886367Y1175369D01*
Y1173819D01*
X886429Y1172455D01*
Y1171897D01*
X886491Y1171339D01*
Y1170843D01*
Y1170409D01*
X886553Y1170099D01*
Y1169851D01*
Y1169727D01*
Y1169665D01*
X883081Y1170905D01*
Y1172641D01*
X873409D01*
Y1170161D01*
X869937Y1171401D01*
X869999Y1172083D01*
Y1172827D01*
X870061Y1173633D01*
Y1174563D01*
X870123Y1176423D01*
Y1178345D01*
X870185Y1179213D01*
Y1180081D01*
Y1180825D01*
Y1181507D01*
Y1182065D01*
Y1182437D01*
Y1182747D01*
Y1182809D01*
X868201Y1184545D01*
X871921Y1187521D01*
X873657Y1185289D01*
X883081D01*
X886553Y1187521D01*
X886491Y1185909D01*
D02*
G37*
G36*
X1251618Y1185289D02*
X1267490D01*
X1265258Y1183057D01*
X1264204Y1183305D01*
X1263150Y1183491D01*
X1262158Y1183615D01*
X1261228Y1183739D01*
X1260484D01*
X1259864Y1183801D01*
X1257818D01*
X1258438Y1180887D01*
X1259120Y1178035D01*
X1259926Y1175307D01*
X1260794Y1172703D01*
X1261662Y1170223D01*
X1262592Y1167867D01*
X1263460Y1165697D01*
X1264390Y1163713D01*
X1265258Y1161915D01*
X1266064Y1160303D01*
X1266808Y1158876D01*
X1267428Y1157698D01*
X1267738Y1157202D01*
X1267986Y1156768D01*
X1268172Y1156396D01*
X1268358Y1156086D01*
X1268544Y1155838D01*
X1268668Y1155652D01*
X1268730Y1155590D01*
Y1155528D01*
X1267986Y1155032D01*
X1266870Y1156272D01*
X1265692Y1157636D01*
X1264638Y1159000D01*
X1263646Y1160365D01*
X1262778Y1161605D01*
X1262406Y1162101D01*
X1262096Y1162597D01*
X1261848Y1162969D01*
X1261662Y1163217D01*
X1261600Y1163403D01*
X1261538Y1163465D01*
Y1161666D01*
Y1159930D01*
Y1158318D01*
Y1156706D01*
Y1155218D01*
Y1153792D01*
Y1152366D01*
X1261600Y1151064D01*
Y1149886D01*
Y1148708D01*
Y1147592D01*
Y1146538D01*
X1261662Y1144616D01*
Y1143004D01*
Y1141516D01*
X1261724Y1140338D01*
Y1139346D01*
Y1138540D01*
X1261786Y1137920D01*
Y1137486D01*
Y1137238D01*
Y1137176D01*
X1258314Y1138416D01*
Y1144864D01*
X1250874D01*
Y1141640D01*
X1247402Y1143128D01*
Y1143500D01*
X1247464Y1143996D01*
Y1144554D01*
Y1145174D01*
X1247525Y1145918D01*
Y1146662D01*
Y1148336D01*
X1247588Y1150196D01*
Y1152118D01*
Y1156210D01*
X1247650Y1158132D01*
Y1160054D01*
Y1161790D01*
Y1162597D01*
Y1163341D01*
Y1164023D01*
Y1164581D01*
Y1165139D01*
Y1165573D01*
Y1165945D01*
Y1166193D01*
Y1166379D01*
Y1166441D01*
X1245666Y1168177D01*
X1249386Y1171153D01*
X1251122Y1168673D01*
X1258810D01*
X1257880Y1171153D01*
X1257012Y1173757D01*
X1256206Y1176299D01*
X1255834Y1177477D01*
X1255524Y1178655D01*
X1255214Y1179709D01*
X1254904Y1180701D01*
X1254718Y1181569D01*
X1254470Y1182375D01*
X1254346Y1182933D01*
X1254222Y1183429D01*
X1254098Y1183677D01*
Y1183801D01*
X1244921D01*
X1248890Y1188017D01*
X1251618Y1185289D01*
D02*
G37*
G36*
X1179510Y1189505D02*
X1179572Y1188947D01*
X1179882Y1187769D01*
X1180192Y1186467D01*
X1180502Y1185227D01*
X1180874Y1184111D01*
X1180998Y1183615D01*
X1181184Y1183181D01*
X1181246Y1182809D01*
X1181370Y1182561D01*
X1181432Y1182375D01*
Y1182313D01*
X1187384D01*
X1191104Y1184545D01*
X1191042Y1183491D01*
Y1182375D01*
X1190980Y1180081D01*
X1190918Y1177725D01*
Y1176609D01*
X1190856Y1175555D01*
Y1174563D01*
Y1173633D01*
Y1172765D01*
Y1172083D01*
Y1171463D01*
Y1171029D01*
Y1170781D01*
Y1170657D01*
X1204497D01*
X1202264Y1168425D01*
X1201210Y1168673D01*
X1200156Y1168859D01*
X1199164Y1168983D01*
X1198234Y1169107D01*
X1197490D01*
X1196870Y1169169D01*
X1190856D01*
X1191042Y1167867D01*
X1191228Y1166627D01*
X1191538Y1165511D01*
X1191848Y1164395D01*
X1192220Y1163403D01*
X1192530Y1162535D01*
X1192902Y1161666D01*
X1193274Y1160984D01*
X1193646Y1160303D01*
X1194018Y1159744D01*
X1194328Y1159249D01*
X1194638Y1158876D01*
X1194886Y1158567D01*
X1195010Y1158318D01*
X1195134Y1158195D01*
X1195196Y1158132D01*
X1196622Y1156706D01*
X1198110Y1155404D01*
X1199536Y1154226D01*
X1200963Y1153172D01*
X1201582Y1152676D01*
X1202141Y1152304D01*
X1202699Y1151932D01*
X1203132Y1151622D01*
X1203504Y1151374D01*
X1203753Y1151188D01*
X1203939Y1151126D01*
X1204000Y1151064D01*
X1203753Y1150320D01*
X1202078Y1151126D01*
X1200528Y1151994D01*
X1199102Y1152800D01*
X1197800Y1153544D01*
X1196622Y1154288D01*
X1195630Y1154970D01*
X1194700Y1155652D01*
X1193894Y1156272D01*
X1193212Y1156830D01*
X1192592Y1157326D01*
X1192158Y1157822D01*
X1191724Y1158195D01*
X1191476Y1158443D01*
X1191228Y1158690D01*
X1191166Y1158814D01*
X1191104Y1158876D01*
X1190546Y1159682D01*
X1189988Y1160489D01*
X1189182Y1162225D01*
X1188500Y1163961D01*
X1188004Y1165573D01*
X1187880Y1166317D01*
X1187694Y1166999D01*
X1187570Y1167619D01*
X1187508Y1168115D01*
X1187446Y1168549D01*
X1187384Y1168921D01*
Y1169107D01*
Y1169169D01*
X1162832D01*
Y1161976D01*
X1162894Y1161294D01*
X1163018Y1160861D01*
X1163266Y1160489D01*
X1163514Y1160240D01*
X1163762Y1160117D01*
X1164010Y1160054D01*
X1164134Y1159993D01*
X1164878D01*
X1165746Y1160054D01*
X1166800D01*
X1167854Y1160117D01*
X1168846Y1160179D01*
X1169714D01*
X1170024Y1160240D01*
X1170520D01*
Y1159249D01*
X1169528Y1159062D01*
X1168598Y1158753D01*
X1167854Y1158443D01*
X1167172Y1158132D01*
X1166552Y1157760D01*
X1166056Y1157388D01*
X1165622Y1157016D01*
X1165250Y1156644D01*
X1165002Y1156272D01*
X1164754Y1155962D01*
X1164506Y1155342D01*
X1164382Y1155094D01*
X1164320Y1154908D01*
Y1154846D01*
Y1154784D01*
X1163390Y1155218D01*
X1162646Y1155652D01*
X1161964Y1156148D01*
X1161406Y1156706D01*
X1160910Y1157264D01*
X1160538Y1157885D01*
X1160228Y1158443D01*
X1159979Y1159000D01*
X1159732Y1160054D01*
X1159669Y1160551D01*
X1159607Y1160922D01*
Y1161233D01*
Y1161543D01*
Y1161666D01*
Y1161729D01*
Y1169169D01*
X1147207D01*
X1151423Y1173881D01*
X1154895Y1170657D01*
X1159607D01*
Y1180081D01*
X1157624Y1181817D01*
X1161592Y1184793D01*
X1163328Y1182313D01*
X1179944D01*
X1179448Y1183057D01*
X1179014Y1183739D01*
X1178580Y1184359D01*
X1178146Y1184917D01*
X1177712Y1185413D01*
X1177278Y1185785D01*
X1176534Y1186529D01*
X1175914Y1186963D01*
X1175418Y1187273D01*
X1175108Y1187459D01*
X1174984Y1187521D01*
X1179448Y1190001D01*
X1179510Y1189505D01*
D02*
G37*
G36*
X999210Y1188761D02*
X1000946Y1188141D01*
X1002620Y1187521D01*
X1004232Y1187025D01*
X1004976Y1186777D01*
X1005658Y1186591D01*
X1006278Y1186467D01*
X1006774Y1186281D01*
X1007208Y1186157D01*
X1007580Y1186095D01*
X1007766Y1186033D01*
X1007828D01*
X1009006Y1185785D01*
X1010308Y1185475D01*
X1012912Y1184979D01*
X1015578Y1184545D01*
X1016880Y1184297D01*
X1018058Y1184111D01*
X1019236Y1183925D01*
X1020290Y1183801D01*
X1021282Y1183615D01*
X1022088Y1183553D01*
X1022770Y1183429D01*
X1023267Y1183367D01*
X1023577Y1183305D01*
X1023700D01*
X1023453Y1182313D01*
X1021964Y1182437D01*
X1020538Y1182499D01*
X1019174Y1182561D01*
X1017872Y1182685D01*
X1016632Y1182747D01*
X1015516Y1182871D01*
X1014524Y1182933D01*
X1013532Y1182995D01*
X1012726Y1183057D01*
X1011982Y1183119D01*
X1011300Y1183181D01*
X1010804Y1183243D01*
X1010370D01*
X1010060Y1183305D01*
X1009812D01*
Y1171649D01*
X1026429D01*
X1024445Y1169665D01*
X1022212Y1170161D01*
X1013036D01*
X1014152Y1168549D01*
X1015330Y1166999D01*
X1016446Y1165573D01*
X1017500Y1164333D01*
X1018368Y1163279D01*
X1018802Y1162907D01*
X1019112Y1162535D01*
X1019360Y1162225D01*
X1019546Y1162038D01*
X1019670Y1161915D01*
X1019732Y1161852D01*
X1021220Y1160426D01*
X1022770Y1159062D01*
X1024321Y1157822D01*
X1025808Y1156768D01*
X1026553Y1156272D01*
X1027172Y1155838D01*
X1027731Y1155466D01*
X1028227Y1155156D01*
X1028599Y1154908D01*
X1028909Y1154722D01*
X1029095Y1154598D01*
X1029157Y1154536D01*
X1028909Y1153792D01*
X1027421Y1154412D01*
X1026057Y1155032D01*
X1024817Y1155714D01*
X1023700Y1156334D01*
X1022770Y1156892D01*
X1022398Y1157140D01*
X1022088Y1157326D01*
X1021840Y1157512D01*
X1021592Y1157636D01*
X1021530Y1157760D01*
X1021468D01*
Y1155962D01*
Y1154226D01*
Y1152614D01*
Y1151002D01*
Y1149514D01*
Y1148088D01*
Y1146724D01*
X1021530Y1145422D01*
Y1144182D01*
Y1143066D01*
Y1141950D01*
Y1140896D01*
Y1139966D01*
X1021592Y1139036D01*
Y1137424D01*
Y1135998D01*
X1021654Y1134820D01*
Y1133828D01*
Y1133022D01*
X1021716Y1132464D01*
Y1132030D01*
Y1131782D01*
Y1131720D01*
X1018244Y1132960D01*
Y1136184D01*
X998404D01*
Y1132712D01*
X994932Y1133952D01*
Y1134386D01*
X994994Y1134882D01*
Y1136060D01*
X995056Y1137424D01*
Y1138912D01*
X995118Y1140524D01*
Y1142198D01*
Y1145546D01*
X995180Y1147158D01*
Y1148708D01*
Y1150072D01*
Y1151312D01*
Y1152366D01*
Y1152738D01*
Y1153110D01*
Y1153420D01*
Y1153606D01*
Y1153730D01*
Y1153792D01*
X993196Y1155280D01*
X996668Y1158504D01*
X998900Y1156272D01*
X1018244D01*
X1021220Y1158008D01*
X1020352Y1158567D01*
X1019360Y1159249D01*
X1018430Y1159993D01*
X1017500Y1160798D01*
X1016756Y1161480D01*
X1016074Y1162038D01*
X1015826Y1162287D01*
X1015640Y1162473D01*
X1015578Y1162535D01*
X1015516Y1162597D01*
X1014276Y1163837D01*
X1013160Y1165015D01*
X1012168Y1166131D01*
X1011362Y1167123D01*
X1010680Y1167991D01*
X1010184Y1168611D01*
X1010060Y1168859D01*
X1009936Y1169045D01*
X1009812Y1169107D01*
Y1166813D01*
X1009874Y1164581D01*
Y1163527D01*
Y1162597D01*
X1009936Y1161666D01*
Y1160798D01*
Y1160054D01*
X1009998Y1159311D01*
Y1158753D01*
Y1158195D01*
X1010060Y1157822D01*
Y1157512D01*
Y1157326D01*
Y1157264D01*
X1006340Y1159000D01*
X1006402Y1159682D01*
Y1160426D01*
X1006464Y1161233D01*
Y1162101D01*
X1006526Y1163961D01*
Y1165821D01*
X1006588Y1166689D01*
Y1167495D01*
Y1168239D01*
Y1168859D01*
Y1169417D01*
Y1169789D01*
Y1170099D01*
Y1170161D01*
X1005472Y1168487D01*
X1004356Y1166937D01*
X1003302Y1165635D01*
X1002310Y1164519D01*
X1001504Y1163589D01*
X1001132Y1163217D01*
X1000822Y1162907D01*
X1000574Y1162659D01*
X1000388Y1162473D01*
X1000326Y1162411D01*
X1000264Y1162349D01*
X998962Y1161233D01*
X997722Y1160303D01*
X996482Y1159435D01*
X995366Y1158753D01*
X994374Y1158257D01*
X993940Y1158008D01*
X993630Y1157822D01*
X993320Y1157698D01*
X993134Y1157574D01*
X993010Y1157512D01*
X992948D01*
X992824Y1157885D01*
X992576Y1158195D01*
X992328Y1158504D01*
X992018Y1158753D01*
X991212Y1159249D01*
X990406Y1159621D01*
X989600Y1159930D01*
X988918Y1160117D01*
X988608Y1160179D01*
X988422D01*
X988298Y1160240D01*
X988236D01*
Y1160984D01*
X990034Y1161171D01*
X991770Y1161543D01*
X993382Y1161976D01*
X994808Y1162535D01*
X995428Y1162783D01*
X995986Y1163031D01*
X996482Y1163217D01*
X996854Y1163403D01*
X997226Y1163589D01*
X997474Y1163713D01*
X997598Y1163837D01*
X997660D01*
X999272Y1164829D01*
X1000698Y1165945D01*
X1002000Y1166999D01*
X1003054Y1167991D01*
X1003922Y1168859D01*
X1004542Y1169541D01*
X1004790Y1169789D01*
X1004976Y1169975D01*
X1005038Y1170099D01*
X1005100Y1170161D01*
X988484D01*
X992948Y1174625D01*
X995924Y1171649D01*
X1002868D01*
X1001876Y1172827D01*
X1000884Y1174067D01*
X999892Y1175307D01*
X998962Y1176485D01*
X998156Y1177539D01*
X997784Y1177973D01*
X997474Y1178345D01*
X997226Y1178655D01*
X997040Y1178903D01*
X996978Y1179027D01*
X996916Y1179089D01*
X994684Y1180081D01*
X999644Y1183305D01*
X999892Y1182313D01*
X1000140Y1181321D01*
X1000512Y1180267D01*
X1000822Y1179337D01*
X1001132Y1178469D01*
X1001380Y1177849D01*
X1001504Y1177601D01*
X1001566Y1177415D01*
X1001628Y1177291D01*
Y1177229D01*
X1002186Y1175989D01*
X1002682Y1174873D01*
X1003116Y1173881D01*
X1003550Y1173075D01*
X1003860Y1172455D01*
X1004108Y1172021D01*
X1004294Y1171773D01*
X1004356Y1171649D01*
X1006588D01*
Y1183801D01*
X1004790Y1184049D01*
X1003240Y1184297D01*
X1001752Y1184483D01*
X1000512Y1184669D01*
X999396Y1184793D01*
X998404Y1184917D01*
X997536Y1185041D01*
X996792Y1185103D01*
X996172Y1185165D01*
X995676Y1185227D01*
X995242D01*
X994932Y1185289D01*
X994436D01*
X997660Y1189505D01*
X999210Y1188761D01*
D02*
G37*
G36*
X910796Y1185847D02*
X910734Y1184173D01*
X910672Y1182623D01*
X910610Y1181197D01*
Y1180577D01*
Y1180019D01*
Y1179461D01*
Y1179027D01*
Y1178717D01*
Y1178469D01*
Y1178283D01*
Y1178221D01*
Y1176423D01*
X910672Y1174625D01*
Y1173013D01*
X910734Y1171525D01*
Y1170843D01*
X910796Y1170223D01*
Y1169727D01*
Y1169293D01*
X910858Y1168921D01*
Y1168673D01*
Y1168487D01*
Y1168425D01*
X907386Y1170161D01*
Y1172641D01*
X897466D01*
Y1169665D01*
X893994Y1171153D01*
X894055Y1171711D01*
Y1172455D01*
X894118Y1173261D01*
Y1174129D01*
X894180Y1176051D01*
Y1178035D01*
X894241Y1178965D01*
Y1179833D01*
Y1180639D01*
Y1181383D01*
Y1181941D01*
Y1182437D01*
Y1182685D01*
Y1182809D01*
X892010Y1184297D01*
X895978Y1187521D01*
X897714Y1185289D01*
X907386D01*
X910858Y1187521D01*
X910796Y1185847D01*
D02*
G37*
G36*
X946819Y1187211D02*
X947377Y1184483D01*
X947997Y1181817D01*
X948617Y1179213D01*
X949237Y1176795D01*
X949919Y1174501D01*
X950601Y1172331D01*
X951221Y1170347D01*
X951841Y1168487D01*
X952399Y1166875D01*
X952895Y1165449D01*
X953391Y1164209D01*
X953577Y1163713D01*
X953763Y1163279D01*
X953887Y1162907D01*
X954011Y1162535D01*
X954135Y1162287D01*
X954197Y1162101D01*
X954259Y1162038D01*
Y1161976D01*
X953515Y1161480D01*
X953329Y1161605D01*
X953143Y1161852D01*
X952833Y1162287D01*
X952523Y1162721D01*
X952213Y1163341D01*
X951841Y1163961D01*
X951097Y1165325D01*
X950415Y1166627D01*
X950105Y1167247D01*
X949857Y1167805D01*
X949609Y1168239D01*
X949423Y1168611D01*
X949361Y1168859D01*
X949299Y1168921D01*
X949051Y1166813D01*
X948679Y1164767D01*
X948307Y1162783D01*
X947873Y1160922D01*
X947439Y1159125D01*
X946943Y1157450D01*
X946447Y1155900D01*
X945951Y1154474D01*
X945517Y1153172D01*
X945083Y1151994D01*
X944649Y1151002D01*
X944339Y1150134D01*
X944029Y1149514D01*
X943781Y1149018D01*
X943657Y1148708D01*
X943595Y1148584D01*
X944897Y1146848D01*
X946323Y1145174D01*
X947811Y1143624D01*
X949423Y1142136D01*
X950973Y1140710D01*
X952585Y1139408D01*
X954135Y1138230D01*
X955623Y1137114D01*
X957111Y1136122D01*
X958413Y1135254D01*
X959591Y1134510D01*
X960645Y1133890D01*
X961513Y1133394D01*
X962133Y1133022D01*
X962381Y1132898D01*
X962567Y1132774D01*
X962629Y1132712D01*
X962691D01*
X962443Y1131968D01*
X960211Y1132836D01*
X958041Y1133828D01*
X956057Y1134882D01*
X954073Y1135998D01*
X952275Y1137176D01*
X950601Y1138354D01*
X949051Y1139470D01*
X947563Y1140586D01*
X946323Y1141640D01*
X945145Y1142632D01*
X944153Y1143562D01*
X943347Y1144306D01*
X942727Y1144988D01*
X942231Y1145422D01*
X941983Y1145732D01*
X941859Y1145856D01*
X940867Y1144492D01*
X939813Y1143190D01*
X938821Y1141950D01*
X937766Y1140834D01*
X936712Y1139718D01*
X935721Y1138726D01*
X934728Y1137796D01*
X933798Y1136990D01*
X932992Y1136246D01*
X932186Y1135564D01*
X931504Y1135006D01*
X930884Y1134572D01*
X930388Y1134200D01*
X930016Y1133952D01*
X929768Y1133766D01*
X929706Y1133704D01*
X929520Y1134138D01*
X929272Y1134510D01*
X928962Y1134882D01*
X928590Y1135130D01*
X927722Y1135564D01*
X926792Y1135874D01*
X925924Y1136060D01*
X925180Y1136122D01*
X924932Y1136184D01*
X924498D01*
Y1137176D01*
X926048Y1137610D01*
X927536Y1138230D01*
X928962Y1138974D01*
X930326Y1139780D01*
X931690Y1140710D01*
X932930Y1141640D01*
X934170Y1142632D01*
X935225Y1143624D01*
X936279Y1144616D01*
X937147Y1145484D01*
X937952Y1146352D01*
X938634Y1147096D01*
X939131Y1147716D01*
X939565Y1148150D01*
X939813Y1148460D01*
X939875Y1148584D01*
X938821Y1150320D01*
X937890Y1152242D01*
X937022Y1154288D01*
X936217Y1156396D01*
X935535Y1158567D01*
X934853Y1160736D01*
X934294Y1162907D01*
X933736Y1164953D01*
X933302Y1166937D01*
X932930Y1168735D01*
X932620Y1170409D01*
X932496Y1171153D01*
X932372Y1171835D01*
X932248Y1172455D01*
X932186Y1173013D01*
X932124Y1173447D01*
X932062Y1173881D01*
X932000Y1174191D01*
X931938Y1174439D01*
Y1174563D01*
Y1174625D01*
X925490D01*
X929954Y1179089D01*
X932930Y1176113D01*
X946075D01*
X945517Y1177725D01*
X944959Y1179337D01*
X944401Y1180949D01*
X943905Y1182437D01*
X943657Y1183057D01*
X943471Y1183677D01*
X943285Y1184173D01*
X943161Y1184669D01*
X943037Y1185041D01*
X942913Y1185289D01*
X942851Y1185475D01*
Y1185537D01*
X940619Y1186777D01*
X946323Y1190001D01*
X946819Y1187211D01*
D02*
G37*
G36*
X972611Y1188017D02*
X971867Y1187149D01*
X971185Y1186343D01*
X970565Y1185599D01*
X970007Y1184917D01*
X969573Y1184235D01*
X969139Y1183615D01*
X968457Y1182623D01*
X968023Y1181755D01*
X967713Y1181197D01*
X967589Y1180825D01*
X967527Y1180701D01*
X967341Y1180267D01*
X967217Y1179833D01*
X966845Y1179213D01*
X966535Y1178841D01*
X966225Y1178531D01*
X965915Y1178407D01*
X965729Y1178345D01*
X965543D01*
X965171Y1178531D01*
X964799Y1178779D01*
X964489Y1179151D01*
X964241Y1179523D01*
X964055Y1179833D01*
X963931Y1180143D01*
X963807Y1180391D01*
Y1180453D01*
X963683Y1181135D01*
Y1181817D01*
X963869Y1182437D01*
X964055Y1182933D01*
X964303Y1183429D01*
X964551Y1183739D01*
X964737Y1183987D01*
X964799Y1184049D01*
X965171Y1184359D01*
X965605Y1184731D01*
X966101Y1185103D01*
X966597Y1185537D01*
X967837Y1186281D01*
X969077Y1187087D01*
X970193Y1187707D01*
X970751Y1188017D01*
X971185Y1188265D01*
X971557Y1188451D01*
X971867Y1188637D01*
X972053Y1188699D01*
X972115Y1188761D01*
X972611Y1188017D01*
D02*
G37*
G36*
X1218137Y1185289D02*
X1244673D01*
X1242441Y1183057D01*
X1241387Y1183305D01*
X1240333Y1183491D01*
X1239341Y1183615D01*
X1238411Y1183739D01*
X1237667D01*
X1237047Y1183801D01*
X1230041D01*
Y1176113D01*
X1239217D01*
X1242689Y1177601D01*
X1242627Y1175555D01*
X1242565Y1173385D01*
X1242503Y1171277D01*
X1242441Y1169293D01*
Y1168363D01*
Y1167495D01*
Y1166751D01*
Y1166069D01*
Y1165573D01*
Y1165139D01*
Y1164891D01*
Y1164829D01*
Y1163465D01*
Y1162162D01*
Y1160922D01*
X1242503Y1159807D01*
Y1158753D01*
Y1157760D01*
X1242565Y1156892D01*
Y1156086D01*
Y1155404D01*
X1242627Y1154784D01*
Y1154288D01*
Y1153854D01*
X1242689Y1153482D01*
Y1153234D01*
Y1153110D01*
Y1153048D01*
X1239217Y1154288D01*
Y1156024D01*
X1230289D01*
X1230661Y1153854D01*
X1231095Y1151870D01*
X1231653Y1150134D01*
X1231901Y1149328D01*
X1232149Y1148584D01*
X1232459Y1147902D01*
X1232707Y1147344D01*
X1232893Y1146848D01*
X1233141Y1146414D01*
X1233265Y1146042D01*
X1233389Y1145794D01*
X1233513Y1145670D01*
Y1145608D01*
X1234691Y1146662D01*
X1235869Y1147840D01*
X1236985Y1149080D01*
X1238101Y1150258D01*
X1239031Y1151374D01*
X1239465Y1151808D01*
X1239775Y1152242D01*
X1240085Y1152552D01*
X1240271Y1152862D01*
X1240395Y1152986D01*
X1240457Y1153048D01*
X1241201Y1152552D01*
X1240085Y1150692D01*
X1238969Y1148894D01*
X1237915Y1147344D01*
X1236985Y1146042D01*
X1236551Y1145422D01*
X1236179Y1144926D01*
X1235807Y1144430D01*
X1235559Y1144058D01*
X1235311Y1143748D01*
X1235125Y1143562D01*
X1235063Y1143438D01*
X1235001Y1143376D01*
X1236179Y1142260D01*
X1237481Y1141144D01*
X1238907Y1140090D01*
X1240333Y1139098D01*
X1241821Y1138168D01*
X1243371Y1137300D01*
X1244859Y1136494D01*
X1246285Y1135750D01*
X1247650Y1135068D01*
X1248952Y1134448D01*
X1250130Y1133952D01*
X1251122Y1133518D01*
X1251928Y1133146D01*
X1252548Y1132898D01*
X1252796Y1132836D01*
X1252982Y1132774D01*
X1253044Y1132712D01*
X1253106D01*
X1252858Y1131968D01*
X1250564Y1132526D01*
X1248456Y1133146D01*
X1246410Y1133890D01*
X1244488Y1134634D01*
X1242689Y1135440D01*
X1241077Y1136246D01*
X1239527Y1137052D01*
X1238163Y1137858D01*
X1236923Y1138602D01*
X1235869Y1139284D01*
X1234939Y1139966D01*
X1234133Y1140524D01*
X1233575Y1140958D01*
X1233141Y1141330D01*
X1232831Y1141578D01*
X1232769Y1141640D01*
X1231405Y1140586D01*
X1229917Y1139656D01*
X1228429Y1138726D01*
X1226879Y1137858D01*
X1225391Y1137114D01*
X1223903Y1136370D01*
X1222415Y1135750D01*
X1220989Y1135192D01*
X1219687Y1134634D01*
X1218509Y1134200D01*
X1217393Y1133828D01*
X1216463Y1133518D01*
X1215719Y1133270D01*
X1215161Y1133084D01*
X1214789Y1133022D01*
X1214665Y1132960D01*
X1214169Y1133890D01*
X1213611Y1134634D01*
X1212867Y1135254D01*
X1212185Y1135750D01*
X1211503Y1136060D01*
X1210945Y1136246D01*
X1210573Y1136370D01*
X1210511Y1136432D01*
X1210449D01*
Y1137176D01*
X1212681Y1137362D01*
X1214851Y1137610D01*
X1216835Y1137982D01*
X1218819Y1138416D01*
X1220617Y1138912D01*
X1222291Y1139408D01*
X1223841Y1140028D01*
X1225267Y1140586D01*
X1226569Y1141144D01*
X1227747Y1141702D01*
X1228677Y1142260D01*
X1229545Y1142694D01*
X1230165Y1143066D01*
X1230661Y1143376D01*
X1230909Y1143562D01*
X1231033Y1143624D01*
X1229917Y1145918D01*
X1229049Y1148150D01*
X1228367Y1150258D01*
X1228057Y1151250D01*
X1227809Y1152180D01*
X1227623Y1152986D01*
X1227499Y1153730D01*
X1227313Y1154412D01*
X1227251Y1154970D01*
X1227127Y1155404D01*
Y1155776D01*
X1227065Y1155962D01*
Y1156024D01*
X1217889D01*
Y1152552D01*
X1214417Y1154040D01*
Y1154412D01*
X1214479Y1154846D01*
Y1155342D01*
Y1155900D01*
X1214541Y1157202D01*
Y1158628D01*
X1214603Y1160240D01*
Y1161915D01*
Y1165387D01*
X1214665Y1167061D01*
Y1168673D01*
Y1170161D01*
Y1171463D01*
Y1172083D01*
Y1172579D01*
Y1173013D01*
Y1173385D01*
Y1173695D01*
Y1173943D01*
Y1174067D01*
Y1174129D01*
X1212929Y1175865D01*
X1216649Y1178593D01*
X1218137Y1176113D01*
X1226817D01*
Y1183801D01*
X1210945D01*
X1214913Y1188017D01*
X1218137Y1185289D01*
D02*
G37*
%LPC*%
G36*
X884569Y1150072D02*
X873409D01*
Y1139656D01*
X884569D01*
Y1150072D01*
D02*
G37*
G36*
X1006588Y1154784D02*
X998404D01*
Y1147096D01*
X1006588D01*
Y1154784D01*
D02*
G37*
G36*
X1258314Y1167185D02*
X1250874D01*
Y1146352D01*
X1258314D01*
Y1167185D01*
D02*
G37*
G36*
X906642Y1150072D02*
X896970D01*
Y1139656D01*
X906642D01*
Y1150072D01*
D02*
G37*
G36*
X1179696Y1151560D02*
X1171512D01*
Y1136184D01*
X1179696D01*
Y1151560D01*
D02*
G37*
G36*
X1168288D02*
X1160848D01*
Y1136184D01*
X1168288D01*
Y1151560D01*
D02*
G37*
G36*
X1190856D02*
X1182920D01*
Y1136184D01*
X1190856D01*
Y1151560D01*
D02*
G37*
G36*
X1018244Y1145608D02*
X1009812D01*
Y1137672D01*
X1018244D01*
Y1145608D01*
D02*
G37*
G36*
X1006588D02*
X998404D01*
Y1137672D01*
X1006588D01*
Y1145608D01*
D02*
G37*
G36*
X1239217Y1174625D02*
X1230041D01*
Y1166937D01*
X1239217D01*
Y1174625D01*
D02*
G37*
G36*
X1226817D02*
X1217889D01*
Y1166937D01*
X1226817D01*
Y1174625D01*
D02*
G37*
G36*
X1187384Y1180825D02*
X1162832D01*
Y1170657D01*
X1187384D01*
Y1180825D01*
D02*
G37*
G36*
X907386Y1183801D02*
X897466D01*
Y1174129D01*
X907386D01*
Y1183801D01*
D02*
G37*
G36*
X883081D02*
X873409D01*
Y1174129D01*
X883081D01*
Y1183801D01*
D02*
G37*
G36*
X946571Y1174625D02*
X935658D01*
X936093Y1171711D01*
X936589Y1168983D01*
X937085Y1166503D01*
X937580Y1164209D01*
X938076Y1162162D01*
X938572Y1160240D01*
X939131Y1158567D01*
X939565Y1157078D01*
X940061Y1155714D01*
X940495Y1154598D01*
X940867Y1153668D01*
X941177Y1152924D01*
X941487Y1152304D01*
X941673Y1151870D01*
X941797Y1151622D01*
X941859Y1151560D01*
X943409Y1155032D01*
X944773Y1158443D01*
X945331Y1160054D01*
X945889Y1161666D01*
X946323Y1163155D01*
X946757Y1164581D01*
X947129Y1165883D01*
X947439Y1167061D01*
X947687Y1168053D01*
X947935Y1168983D01*
X948121Y1169665D01*
X948183Y1170223D01*
X948307Y1170533D01*
Y1170657D01*
X947749Y1172145D01*
X947439Y1172765D01*
X947129Y1173385D01*
X946943Y1173881D01*
X946757Y1174315D01*
X946633Y1174563D01*
X946571Y1174625D01*
D02*
G37*
G36*
X1018244Y1154784D02*
X1009812D01*
Y1147096D01*
X1018244D01*
Y1154784D01*
D02*
G37*
G36*
X1226817Y1165449D02*
X1217889D01*
Y1157512D01*
X1227065D01*
X1226817Y1165449D01*
D02*
G37*
G36*
X1101016Y1179833D02*
X1096428D01*
X1095560Y1179709D01*
X1094754Y1179647D01*
X1093948Y1179461D01*
X1093266Y1179275D01*
X1092646Y1179089D01*
X1092088Y1178903D01*
X1091592Y1178655D01*
X1090786Y1178221D01*
X1090228Y1177849D01*
X1089918Y1177601D01*
X1089794Y1177477D01*
X1088988Y1176485D01*
X1088430Y1175369D01*
X1087996Y1174129D01*
X1087748Y1172951D01*
X1087562Y1171835D01*
X1087500Y1171401D01*
Y1170967D01*
X1087438Y1170657D01*
Y1170409D01*
Y1170223D01*
Y1170161D01*
Y1169169D01*
X1087562Y1168239D01*
X1087686Y1167433D01*
X1087872Y1166689D01*
X1088120Y1165945D01*
X1088368Y1165325D01*
X1088616Y1164767D01*
X1088864Y1164271D01*
X1089112Y1163837D01*
X1089360Y1163465D01*
X1089856Y1162907D01*
X1090166Y1162597D01*
X1090228Y1162473D01*
X1090290D01*
X1091406Y1161729D01*
X1092522Y1161171D01*
X1093638Y1160798D01*
X1094630Y1160551D01*
X1095560Y1160365D01*
X1096242Y1160303D01*
X1096490Y1160240D01*
X1103062D01*
Y1177849D01*
X1102938Y1178531D01*
X1102752Y1178965D01*
X1102566Y1179275D01*
X1102442Y1179337D01*
X1101946Y1179647D01*
X1101388Y1179771D01*
X1101016Y1179833D01*
D02*
G37*
G36*
X1239217Y1165449D02*
X1230041D01*
X1230289Y1157512D01*
X1239217D01*
Y1165449D01*
D02*
G37*
%LPD*%
G36*
X1179696Y1179585D02*
X1178642Y1178407D01*
X1177836Y1177229D01*
X1177154Y1176113D01*
X1176596Y1175183D01*
X1176224Y1174315D01*
X1175914Y1173695D01*
X1175852Y1173447D01*
X1175790Y1173261D01*
X1175728Y1173199D01*
Y1173137D01*
X1175542Y1172579D01*
X1175356Y1172207D01*
X1175108Y1171897D01*
X1174922Y1171711D01*
X1174674Y1171587D01*
X1174488Y1171525D01*
X1174240D01*
X1174054Y1171649D01*
X1173682Y1171835D01*
X1173372Y1172145D01*
X1173186Y1172393D01*
X1173124Y1172517D01*
X1172876Y1173013D01*
X1172690Y1173447D01*
X1172442Y1174253D01*
Y1174997D01*
X1172504Y1175617D01*
X1172690Y1176113D01*
X1172876Y1176423D01*
X1173062Y1176671D01*
X1173124Y1176733D01*
X1173434Y1177043D01*
X1173868Y1177353D01*
X1174736Y1177973D01*
X1175728Y1178593D01*
X1176782Y1179151D01*
X1177712Y1179647D01*
X1178456Y1180019D01*
X1178766Y1180143D01*
X1179014Y1180267D01*
X1179138Y1180329D01*
X1179200D01*
X1179696Y1179585D01*
D02*
G37*
D10*
X1354075Y1200150D02*
X1428750D01*
X1242060Y1088135D02*
X1354075Y1200150D01*
X1454150Y1201420D02*
X1483360D01*
X1242060Y1073150D02*
Y1088135D01*
X1224280Y1055370D02*
X1242060Y1073150D01*
X1281430Y830580D02*
Y840740D01*
X1176020Y725170D02*
X1281430Y830580D01*
X1304290Y828040D02*
Y863600D01*
X1176020Y699770D02*
X1304290Y828040D01*
X1348740Y821690D02*
Y859790D01*
X1176020Y648970D02*
X1348740Y821690D01*
X1327150Y825500D02*
Y839470D01*
X1176020Y674370D02*
X1327150Y825500D01*
X1437640Y882650D02*
X1457960Y862330D01*
X1254760Y882650D02*
X1437640D01*
X1224280Y852170D02*
X1254760Y882650D01*
X1423670Y820420D02*
Y839470D01*
X1176020Y572770D02*
X1423670Y820420D01*
X1398270D02*
Y859790D01*
X1176020Y598170D02*
X1398270Y820420D01*
X1372870D02*
Y840740D01*
X1176020Y623570D02*
X1372870Y820420D01*
X1259840Y834390D02*
Y858520D01*
X1176020Y750570D02*
X1259840Y834390D01*
X1224280Y928370D02*
Y928625D01*
X1158240Y844550D02*
X1176020Y826770D01*
X1158240Y844550D02*
Y1037335D01*
X1176020Y1055115D01*
Y1055370D01*
X925830Y567435D02*
Y567690D01*
Y807720D02*
X957580Y775970D01*
X1023620D01*
X951230Y750570D02*
X1023620D01*
X911860Y789940D02*
X951230Y750570D01*
X867410Y789940D02*
X911860D01*
X916940Y764540D02*
X956310Y725170D01*
X867410Y764540D02*
X916940D01*
X956310Y725170D02*
X1023620D01*
X1005840Y801370D02*
X1023620D01*
X977900Y829310D02*
X1005840Y801370D01*
X881380Y829310D02*
X977900D01*
X999490Y826770D02*
X1023620D01*
X985520Y840740D02*
X999490Y826770D01*
X867410Y840740D02*
X985520D01*
X867410Y815340D02*
X881380Y829310D01*
X906780Y660400D02*
X925830D01*
X867410Y621030D02*
X906780Y660400D01*
X971550Y648970D02*
X1023620D01*
X932180Y688340D02*
X971550Y648970D01*
X867410Y688340D02*
X932180D01*
X966470Y674370D02*
X1023620D01*
X927100Y713740D02*
X966470Y674370D01*
X867410Y713740D02*
X927100D01*
X961390Y699770D02*
X1023620D01*
X922020Y739140D02*
X961390Y699770D01*
X867410Y739140D02*
X922020D01*
X1483360Y471425D02*
Y582930D01*
X1457960D02*
X1459230Y581660D01*
Y534670D02*
Y581660D01*
Y472440D02*
Y509270D01*
X838200Y873760D02*
X855980Y891540D01*
X867410D01*
X838200Y599440D02*
Y873760D01*
Y599440D02*
X867410Y570230D01*
X849630Y613410D02*
X867410Y595630D01*
X849630Y613410D02*
Y848105D01*
X867410Y865885D01*
Y866140D01*
X1023620Y902970D02*
X1051560Y875030D01*
X1023620Y877315D02*
X1041400Y859535D01*
X1023620Y877315D02*
Y877570D01*
X925830Y567690D02*
Y603250D01*
X951230Y628650D02*
X969010Y610870D01*
X925830Y628650D02*
X951230D01*
Y542290D02*
X969010Y560070D01*
X925830Y542290D02*
X951230D01*
X918210Y595630D02*
X925830Y603250D01*
X867410Y595630D02*
X918210D01*
X867410Y866140D02*
X922020D01*
X930910Y875030D01*
Y895350D01*
X1008380Y852170D02*
X1023620D01*
X930910Y929640D02*
X1008380Y852170D01*
X930910Y929640D02*
Y996950D01*
Y1032510D01*
X867410Y891540D02*
Y994410D01*
X930910Y1057910D01*
X867410Y595630D02*
Y595885D01*
X1176020Y852170D02*
X1224280D01*
X1176020Y877570D02*
X1224280D01*
X1176020Y902970D02*
X1224280D01*
X1176020Y928370D02*
X1224280D01*
X1176020Y953770D02*
X1224280D01*
X1176020Y979170D02*
X1224280D01*
X1176020Y1004570D02*
X1224280D01*
X1176020Y1029970D02*
X1224280D01*
X1176020Y1055370D02*
X1224280D01*
X1423670Y1052830D02*
Y1088390D01*
X1521460Y1051560D02*
Y1084580D01*
X1510030Y1040130D02*
X1521460Y1051560D01*
X1483360Y1040130D02*
X1510030D01*
X1423670Y1088390D02*
X1446530Y1111250D01*
X1494790D01*
X1521460Y1084580D01*
X1498998Y1121410D02*
X1531620Y1088788D01*
X1503207Y1131570D02*
X1541780Y1092997D01*
Y1016000D02*
Y1092997D01*
X1515110Y989330D02*
X1541780Y1016000D01*
X1483360Y989330D02*
X1515110D01*
X1507415Y1141730D02*
X1551940Y1097205D01*
Y1007110D02*
Y1097205D01*
X1508760Y963930D02*
X1551940Y1007110D01*
X1483360Y963930D02*
X1508760D01*
X1327150Y1055370D02*
X1330960Y1059180D01*
X1511624Y1151890D02*
X1562100Y1101414D01*
Y995680D02*
Y1101414D01*
X1504950Y938530D02*
X1562100Y995680D01*
X1483360Y938530D02*
X1504950D01*
X1515832Y1162050D02*
X1572260Y1105622D01*
Y979170D02*
Y1105622D01*
X1506220Y913130D02*
X1572260Y979170D01*
X1483360Y913130D02*
X1506220D01*
X1281430Y1054100D02*
X1286510Y1059180D01*
Y1085595D01*
X1373125Y1172210D01*
X1520040D01*
X1582420Y1109830D01*
Y965200D02*
Y1109830D01*
X1504950Y887730D02*
X1582420Y965200D01*
X1483360Y887730D02*
X1504950D01*
X1259840Y1080770D02*
X1267317D01*
X1368917Y1182370D01*
X1524249D01*
X1592580Y1114039D01*
X1483360Y862330D02*
X1485900Y864870D01*
X1051560Y528320D02*
Y875030D01*
X1041400Y524112D02*
Y859535D01*
X1023620Y1055370D02*
X1092200D01*
X1148080Y999490D01*
Y575565D02*
Y999490D01*
Y575565D02*
X1168655Y554990D01*
X1183385D01*
X1414525Y786130D01*
X1457960D01*
X1023620Y1029970D02*
X1103232D01*
X1137920Y995282D01*
Y571357D02*
Y995282D01*
Y571357D02*
X1164447Y544830D01*
X1023620Y1004570D02*
X1112520D01*
X1127760Y989330D01*
Y567149D02*
Y989330D01*
Y567149D02*
X1160238Y534670D01*
X1023620Y928115D02*
Y928370D01*
Y928115D02*
X1061720Y890015D01*
Y532528D02*
Y890015D01*
X1041400Y524112D02*
X1065132Y500380D01*
X1338978D01*
X1051560Y528320D02*
X1069340Y510540D01*
X1334770D01*
X1457960Y633730D01*
X1338978Y500380D02*
X1446928Y608330D01*
X1457960D01*
X1592580Y942340D02*
Y1114039D01*
X1485900Y864870D02*
X1515110D01*
X1592580Y942340D01*
X908050Y549655D02*
X925830Y567435D01*
X930910Y1057910D02*
X1001015D01*
X1016255Y1073150D01*
X1158240D01*
X1176020Y1055370D01*
X1061720Y532528D02*
X1073548Y520700D01*
X1319530D01*
X1457960Y659130D01*
X1023620Y979170D02*
X1117600Y885190D01*
Y539750D02*
Y885190D01*
X1023620Y953515D02*
Y953770D01*
X1501140Y474837D02*
Y590550D01*
X1483360Y608330D02*
X1501140Y590550D01*
X1117600Y424180D02*
X1464852D01*
X1511300Y470629D01*
Y605535D01*
X1483360Y633475D02*
X1511300Y605535D01*
X1483360Y633475D02*
Y633730D01*
Y786130D02*
Y811530D01*
Y760730D02*
Y786130D01*
Y760475D02*
Y760730D01*
Y760475D02*
X1501140Y742695D01*
Y727710D02*
Y742695D01*
X1483360Y709930D02*
X1501140Y727710D01*
X1483360Y709675D02*
Y709930D01*
Y709675D02*
X1501140Y691895D01*
Y630063D02*
Y691895D01*
Y630063D02*
X1521460Y609743D01*
Y466420D02*
Y609743D01*
X1457960Y836930D02*
X1483360Y811530D01*
Y1065530D02*
Y1090930D01*
X1461440Y406400D02*
X1521460Y466420D01*
X1466595Y454660D02*
X1483360Y471425D01*
X1160238Y534670D02*
X1223010D01*
X1423670Y735330D01*
X1457960D01*
X1164447Y544830D02*
X1201420D01*
X1417320Y760730D01*
X1457960D01*
X1304290Y1078230D02*
Y1084580D01*
X1381760Y1162050D01*
X1515832D01*
X1330960Y1059180D02*
Y1092200D01*
X1390650Y1151890D01*
X1511624D01*
X1348740Y1080770D02*
Y1085850D01*
X1404620Y1141730D01*
X1507415D01*
X1372870Y1054100D02*
Y1087120D01*
X1417320Y1131570D01*
X1503207D01*
X1398270Y1080770D02*
Y1088390D01*
X1431290Y1121410D01*
X1498998D01*
X1483360Y1014730D02*
X1510030D01*
X1531620Y1036320D01*
Y1088788D01*
X1483360Y811530D02*
X1502410D01*
X1602740Y911860D01*
Y1118247D01*
X1085850Y539750D02*
Y891285D01*
X1023620Y953515D02*
X1085850Y891285D01*
X1224280Y1029970D02*
X1447800D01*
X1457960Y1040130D01*
X1224280Y1004570D02*
X1447800D01*
X1457960Y1014730D01*
X1224280Y979170D02*
X1447800D01*
X1457960Y989330D01*
X1224280Y953770D02*
X1447800D01*
X1457960Y963930D01*
X1224280Y928625D02*
X1448055D01*
X1457960Y938530D01*
X1224280Y902970D02*
X1447800D01*
X1457960Y913130D01*
X1224280Y877570D02*
X1239520Y892810D01*
X1452008D01*
X1452444Y893246D01*
X1452444D01*
X1457960Y887730D01*
X969010Y610870D02*
X981710Y623570D01*
X1023620D01*
X969010Y560070D02*
X1007110Y598170D01*
X1023620D01*
X958850Y524510D02*
X1007110Y572770D01*
X1023620D01*
Y513080D02*
Y572770D01*
Y513080D02*
X1046480Y490220D01*
X1085850Y425450D02*
X1093725D01*
X1110235Y441960D01*
X1124965D01*
X1132585Y434340D01*
X1460643D01*
X1501140Y474837D01*
X1068070Y418085D02*
X1079755Y406400D01*
X1461440D01*
X1046480Y490220D02*
X1385570D01*
X1421130Y454660D01*
X1068070Y418085D02*
Y441960D01*
X1080770Y454660D01*
X1466595D01*
X1483360Y1201420D02*
X1519567D01*
X1602740Y1118247D01*
X908050Y534925D02*
Y549655D01*
Y534925D02*
X918465Y524510D01*
X958850D01*
X867410Y552450D02*
Y570230D01*
Y552450D02*
X947420Y472440D01*
X1357630D01*
D11*
X925830Y628650D02*
D03*
Y603250D02*
D03*
X930910Y996950D02*
D03*
Y895350D02*
D03*
X1459230Y534670D02*
D03*
Y509270D02*
D03*
X925830Y567690D02*
D03*
Y542290D02*
D03*
X1176020Y1055370D02*
D03*
Y1029970D02*
D03*
Y1004570D02*
D03*
Y979170D02*
D03*
Y953770D02*
D03*
Y928370D02*
D03*
Y902970D02*
D03*
Y877570D02*
D03*
Y852170D02*
D03*
Y826770D02*
D03*
Y801370D02*
D03*
Y775970D02*
D03*
Y750570D02*
D03*
Y725170D02*
D03*
Y699770D02*
D03*
Y674370D02*
D03*
Y648970D02*
D03*
Y623570D02*
D03*
Y598170D02*
D03*
Y572770D02*
D03*
X1023620D02*
D03*
Y598170D02*
D03*
Y623570D02*
D03*
Y648970D02*
D03*
Y674370D02*
D03*
Y699770D02*
D03*
Y725170D02*
D03*
Y750570D02*
D03*
Y775970D02*
D03*
Y801370D02*
D03*
Y826770D02*
D03*
Y852170D02*
D03*
Y877570D02*
D03*
Y902970D02*
D03*
Y928370D02*
D03*
Y953770D02*
D03*
Y979170D02*
D03*
Y1004570D02*
D03*
Y1029970D02*
D03*
Y1055370D02*
D03*
X867410Y891540D02*
D03*
Y866140D02*
D03*
Y840740D02*
D03*
Y815340D02*
D03*
Y789940D02*
D03*
Y764540D02*
D03*
Y739140D02*
D03*
Y713740D02*
D03*
Y688340D02*
D03*
X1483360Y582930D02*
D03*
Y608330D02*
D03*
Y633730D02*
D03*
Y659130D02*
D03*
Y684530D02*
D03*
Y709930D02*
D03*
Y735330D02*
D03*
Y760730D02*
D03*
Y786130D02*
D03*
Y811530D02*
D03*
Y836930D02*
D03*
Y862330D02*
D03*
Y887730D02*
D03*
Y913130D02*
D03*
Y938530D02*
D03*
Y963930D02*
D03*
Y989330D02*
D03*
Y1014730D02*
D03*
Y1040130D02*
D03*
Y1065530D02*
D03*
X1457960Y582930D02*
D03*
Y608330D02*
D03*
Y633730D02*
D03*
Y659130D02*
D03*
Y684530D02*
D03*
Y709930D02*
D03*
Y735330D02*
D03*
Y760730D02*
D03*
Y786130D02*
D03*
Y811530D02*
D03*
Y836930D02*
D03*
Y862330D02*
D03*
Y887730D02*
D03*
Y913130D02*
D03*
Y938530D02*
D03*
Y963930D02*
D03*
Y989330D02*
D03*
Y1014730D02*
D03*
Y1040130D02*
D03*
X969010Y560070D02*
D03*
Y610870D02*
D03*
X930910Y1032510D02*
D03*
X1357630Y472440D02*
D03*
X1459230D02*
D03*
X867410Y570230D02*
D03*
Y595630D02*
D03*
Y621030D02*
D03*
X1224280Y852170D02*
D03*
Y877570D02*
D03*
Y902970D02*
D03*
Y928370D02*
D03*
Y953770D02*
D03*
Y979170D02*
D03*
Y1004570D02*
D03*
Y1029970D02*
D03*
Y1055370D02*
D03*
X1428750Y1201420D02*
D03*
X1454150D02*
D03*
X1281430Y840740D02*
D03*
X1304290Y863600D02*
D03*
X1327150Y839470D02*
D03*
X1348740Y861060D02*
D03*
X1372870Y840740D02*
D03*
X1398270Y859790D02*
D03*
X1423670Y839470D02*
D03*
X1259840Y858520D02*
D03*
X925830Y807720D02*
D03*
Y660400D02*
D03*
X1259840Y1080770D02*
D03*
X1281430Y1054100D02*
D03*
X1304290Y1078230D02*
D03*
X1327150Y1055370D02*
D03*
X1348740Y1080770D02*
D03*
X1372870Y1054100D02*
D03*
X1398270Y1080770D02*
D03*
X1423670Y1052830D02*
D03*
X1117600Y539750D02*
D03*
X1085850D02*
D03*
Y425450D02*
D03*
X1117600Y424180D02*
D03*
X1483360Y1090930D02*
D03*
Y1201420D02*
D03*
D12*
X1457960Y1065530D02*
D03*
D13*
X930910Y1057910D02*
D03*
M02*
